<?xml version="1.0" encoding="UTF-8" standalone="no"?>
<!-- Created with Inkscape (http://www.inkscape.org/) -->

<svg
   xmlns:dc="http://purl.org/dc/elements/1.1/"
   xmlns:cc="http://creativecommons.org/ns#"
   xmlns:rdf="http://www.w3.org/1999/02/22-rdf-syntax-ns#"
   xmlns:svg="http://www.w3.org/2000/svg"
   xmlns="http://www.w3.org/2000/svg"
   xmlns:sodipodi="http://sodipodi.sourceforge.net/DTD/sodipodi-0.dtd"
   xmlns:inkscape="http://www.inkscape.org/namespaces/inkscape"
   width="210mm"
   height="297mm"
   viewBox="0 0 210 297"
   version="1.1"
   id="svg8"
   inkscape:version="0.92.3 (2405546, 2018-03-11)"
   sodipodi:docname="drawing.svg">
  <defs
     id="defs2" />
  <sodipodi:namedview
     id="base"
     pagecolor="#ffffff"
     bordercolor="#666666"
     borderopacity="1.0"
     inkscape:pageopacity="0.0"
     inkscape:pageshadow="2"
     inkscape:zoom="0.7"
     inkscape:cx="269.37782"
     inkscape:cy="668.39863"
     inkscape:document-units="mm"
     inkscape:current-layer="layer1"
     showgrid="false"
     inkscape:window-width="1920"
     inkscape:window-height="1052"
     inkscape:window-x="1366"
     inkscape:window-y="0"
     inkscape:window-maximized="1" />
  <metadata
     id="metadata5">
    <rdf:RDF>
      <cc:Work
         rdf:about="">
        <dc:format>image/svg+xml</dc:format>
        <dc:type
           rdf:resource="http://purl.org/dc/dcmitype/StillImage" />
        <dc:title></dc:title>
      </cc:Work>
    </rdf:RDF>
  </metadata>
  <g
     inkscape:label="Layer 1"
     inkscape:groupmode="layer"
     id="layer1">
    <g
       id="g890"
       transform="matrix(0.77084685,0,0,0.77084685,46.981668,-18.105653)">
      <circle
         r="77.5"
         cy="142.01488"
         cx="76.366066"
         id="path865"
         style="opacity:1;fill:#fffffa;fill-opacity:1;stroke:#de6a0b;stroke-width:3.34699988;stroke-miterlimit:4;stroke-dasharray:none;stroke-opacity:1" />
      <path
         inkscape:connector-curvature="0"
         id="path848"
         d="m 69.764948,219.60424 c 0.1819,-0.0734 0.47956,-0.0734 0.66146,0 0.1819,0.0734 0.0331,0.13345 -0.33073,0.13345 -0.3638,0 -0.51263,-0.06 -0.33073,-0.13345 z m -2.89388,-0.2701 c 0.191,-0.0764 0.4192,-0.067 0.50712,0.0209 0.0879,0.0879 -0.0684,0.15045 -0.34726,0.13896 -0.30823,-0.0127 -0.37092,-0.0754 -0.15986,-0.15985 z m -2.11666,-0.26458 c 0.19099,-0.0764 0.4192,-0.067 0.50711,0.0209 0.0879,0.0879 -0.0684,0.15045 -0.34726,0.13896 -0.30823,-0.0127 -0.37092,-0.0754 -0.15985,-0.15985 z m -1.85209,-0.26458 c 0.191,-0.0764 0.4192,-0.067 0.50712,0.0209 0.0879,0.0879 -0.0684,0.15045 -0.34726,0.13897 -0.30823,-0.0127 -0.37092,-0.0754 -0.15986,-0.15985 z m 3.4892,-12.61514 c 0,-0.0793 0.79928,-1.25102 1.77618,-2.60383 4.19794,-5.81332 5.59865,-8.64484 6.81833,-13.78313 1.22031,-5.14096 1.54302,-11.5224 0.7848,-15.51938 -1.48666,-7.83703 -6.49582,-16.21536 -15.4306,-25.80924 -9.95142,-10.68552 -17.74791,-21.47628 -22.12881,-30.62746 -1.74276,-3.64043 -2.62958,-6.25067 -3.16314,-9.31032 -0.51263,-2.93966 -0.51092,-4.15646 0.009,-6.70619 1.28002,-6.272139 5.327,-10.167889 12.55116,-12.082135 5.57875,-1.478247 6.80945,-1.575428 20.10557,-1.587619 13.3572,-0.01225 13.78357,-0.05607 13.97961,-1.436689 0.21262,-1.49746 -4.02743,-4.69717 -10.9369,-8.253414 -2.32834,-1.198372 -4.29287,-2.234458 -4.36563,-2.302414 -0.33968,-0.317248 12.75517,1.570079 16.16773,2.330216 7.06028,1.57265 16.46827,5.628405 22.858322,9.854142 4.18877,2.77004 8.44238,7.12941 9.99368,10.242177 1.16066,2.328906 1.32461,5.099526 0.40728,6.882776 -1.03837,2.01853 -3.08292,2.91438 -6.64367,2.91099 -3.69952,-0.003 -10.432722,-1.47645 -17.515632,-3.83167 -12.4372,-4.13563 -16.6472,-5.159676 -21.21979,-5.161515 -3.39696,-0.0013 -5.04836,0.350528 -6.62083,1.410825 -4.05783,2.73615 -3.85477,10.73637 0.47477,18.7046 1.7503,3.22131 3.44491,5.65537 6.38948,9.17754 4.50823,5.39257 11.66232,15.3542 14.39973,20.05074 1.52484,2.61615 2.83186,5.65549 3.75473,8.73125 1.31364,4.3781 1.49942,5.87518 1.49391,12.03854 -0.005,5.10572 -0.0686,5.9307 -0.62457,8.05206 -2.37747,9.07082 -9.20753,17.7566 -21.5292,27.37868 -0.98227,0.76706 -1.78594,1.32977 -1.78594,1.25047 z"
         style="fill:#ed5b26;fill-opacity:1;stroke-width:0.26458332" />
      <path
         inkscape:connector-curvature="0"
         id="path850"
         d="m 90.352362,187.25462 c 0.13738,-0.29104 0.87135,-1.83885 1.63103,-3.43958 3.21027,-6.76442 3.91085,-8.7154 4.93484,-13.74276 0.64036,-3.14389 0.70588,-4.02722 0.72729,-9.80516 0.0228,-6.15596 0.001,-6.42954 -0.704,-8.95297 -1.25067,-4.47471 -3.85037,-9.24926 -7.44259,-13.6689 -0.88708,-1.09141 -3.705935,-4.1275 -6.264105,-6.74688 -8.44821,-8.65032 -10.92143,-12.10462 -12.17444,-17.00383 -0.949,-3.71057 -0.52934,-5.62901 1.6739,-7.65191 1.5539,-1.42671 2.79945,-1.7543 6.14787,-1.61692 3.06647,0.1258 4.1967,0.58452 7.54209,3.06102 8.500455,6.29266 16.551293,19.32866 19.091073,30.91246 0.83775,3.82092 0.83255,10.7643 -0.0117,15.6906 -1.32294,7.71904 -3.34077,14.17824 -6.082668,19.47108 -1.55026,2.99256 -7.03677,11.44861 -8.4976,13.09688 -0.4514,0.50932 -0.70832,0.68791 -0.57094,0.39687 z"
         style="fill:#f59120;fill-opacity:1;stroke-width:0.26458332" />
      <path
         inkscape:connector-curvature="0"
         id="path852"
         d="m 110.72363,148.31362 c 0.4899,-1.70933 1.01886,-6.82577 1.01894,-9.85573 7e-5,-2.64946 -0.12779,-3.92581 -0.55661,-5.55625 -0.77715,-2.95487 -3.35527,-7.93286 -5.89223,-11.37708 -3.73648,-5.07273 -4.55886,-6.88067 -3.79858,-8.35089 0.24366,-0.47118 0.81694,-0.98332 1.35005,-1.20607 0.86451,-0.36122 1.02076,-0.34401 2.33337,0.25692 2.66861,1.22173 5.23845,3.17435 6.44899,4.90009 1.51348,2.15763 3.30814,6.0521 3.91742,8.50099 0.65677,2.63974 0.65282,7.62445 -0.008,10.05417 -0.66979,2.46282 -3.29498,10.20081 -4.01688,11.8401 -0.61719,1.40154 -1.11202,1.89465 -0.7965,0.79375 z"
         style="fill:#f2e713;fill-opacity:1;stroke-width:0.26458332" />
    </g>
  </g>
</svg>
