<svg width="200" height="42" viewBox="0 0 200 42" xmlns="http://www.w3.org/2000/svg"><g transform="translate(0 1)" fill="none" fill-rule="evenodd"><rect fill="#0069FF" width="200" height="40" rx="6"/><path d="M45 0v40" stroke="#FFF" stroke-linecap="square"/><g fill="#FFF"><path d="M23.01 31v-3.874c4.115 0 7.28-4.071 5.717-8.38-.594-1.6-1.86-2.885-3.462-3.458-4.313-1.562-8.388 1.6-8.388 5.711H13c0-6.542 6.33-11.64 13.195-9.506a9.625 9.625 0 016.31 6.305C34.642 24.675 29.558 31 23.01 31z"/><path d="M22.565 26.652h-3.478v-3.478h3.478zm-3.478 3.478h-2.609v-2.608h2.609zm-2.609-2.608H13.87v-2.609h2.608z"/></g><text font-family="Sailec-Medium, Sailec" font-size="16" font-weight="400" fill="#FFF"><tspan x="58" y="26">Create a Droplet</tspan></text></g></svg>